<?xml version="1.0" encoding="UTF-8" standalone="no"?>
<svg
   xmlns:svg="http://www.w3.org/2000/svg"
   xmlns="http://www.w3.org/2000/svg"
   xmlns:sodipodi="http://sodipodi.sourceforge.net/DTD/sodipodi-0.dtd"
   xmlns:inkscape="http://www.inkscape.org/namespaces/inkscape"
   inkscape:version="1.1-dev (c4f43706, 2020-05-27)"
   sodipodi:docname="新規ドキュメント 1.2020_10_11_19_26_55.0.svg"
   id="svg6"
   version="1.1"
   viewBox="0 0 211.66666 26.458334"
   height="100"
   width="800">
  <defs
     id="defs2">
    <rect
       id="rect930"
       height="28.234291"
       width="259.52342"
       y="62.270149"
       x="-17.017929" />
  </defs>
  <sodipodi:namedview
     inkscape:window-maximized="0"
     inkscape:window-y="23"
     inkscape:window-x="7"
     inkscape:window-height="744"
     inkscape:window-width="1440"
     width="800px"
     units="px"
     showgrid="false"
     inkscape:current-layer="layer1"
     inkscape:document-units="mm"
     inkscape:cy="2.8021136"
     inkscape:cx="325.23237"
     inkscape:zoom="0.69033147"
     inkscape:pageshadow="2"
     inkscape:pageopacity="0.0"
     borderopacity="1.0"
     bordercolor="#666666"
     pagecolor="#ffffff"
     id="base" />
  <g
     id="layer1"
     inkscape:groupmode="layer"
     inkscape:label="レイヤー 1">
    <rect
       y="-1.7763568e-15"
       x="-7.1054274e-15"
       height="26.458334"
       width="211.66667"
       id="rect957"
       style="fill:#4d97ff;fill-opacity:1;fill-rule:evenodd;stroke-width:0.79375;paint-order:stroke fill markers;stop-color:#000000" />
    <g
       transform="matrix(1.0176282,0,0,1.0176282,18.610179,0.66145871)"
       id="g24">
      <g
         id="g12">
        <path
           d="m 60.2,24.1 c -0.8,0.1 -1.3,0.1 -1.5,0.2 -0.4,0.2 -1.3,0.4 -2.4,0.4 -1.4,0 -2.7,-0.5 -3.8,-1.3 h -0.8 c -0.3,0 -0.5,0 -0.8,-0.1 -1.1,0.4 -2.1,0.4 -2.7,0.4 H 48 c -1.4,0.1 -2.8,-0.2 -4,-0.8 -0.6,0.2 -1.1,0.3 -1.7,0.3 l -3.7,0.1 c -1.7,0 -3.2,-0.6 -4.4,-1.7 -0.5,0 -1,-0.1 -1.4,-0.2 -0.6,0.7 -1.4,1.3 -2.4,1.8 -1.9,0.9 -4,1 -6,0.2 -0.2,-0.1 -0.5,-0.2 -0.7,-0.3 l -2.3,0.3 h -0.7 c -0.3,0.1 -0.5,0.3 -0.7,0.4 -1.5,0.7 -2.9,0.7 -3.5,0.7 H 16 c -1.7,0 -3.4,-0.5 -4.7,-1.4 -0.4,0.1 -0.9,0.2 -1.3,0.2 -0.9,0.6 -2,1 -3.2,1.1 H 6.4 c -3.3,0 -6,-2.5 -6.3,-5.8 V 18.5 C 0.1,18 0,16.9 0.1,15.7 0.1,15.1 0.2,14.2 0.2,14 0.2,13.2 0.4,12.4 0.7,11.6 0.5,10.8 0.6,10 0.7,9.2 V 8.9 C 0.8,8.2 1,6.8 1.7,5.4 3,3 5.4,1.5 8.1,1.5 9,1 9.9,0.8 10.9,0.8 h 0.3 c 2,0.1 3.8,1.1 4.9,2.7 C 17,2.7 18.1,2.2 19.3,2 21.7,1.7 23.7,1.6 25.4,1.9 26.3,1.1 27.5,0.5 28.7,0.4 L 31.3,0 h 0.8 c 1.5,0 3,0.6 4.2,1.6 h 0.2 l 3.8,-0.1 c 1.6,0 3,-0.1 3.3,-0.1 h 0.5 c 1.4,0 2.9,0.5 4,1.4 1.1,-0.8 2.4,-1.2 3.8,-1.2 h 1.3 c 1,-0.6 2.1,-1 3.3,-1 l 3.2,-0.1 h 0.1 c 3.4,0 6.2,2.8 6.3,6.2 0,1.6 -0.5,3 -1.5,4.2 v 2.9 c 0.9,1 1.4,2.3 1.5,3.7 0.2,3.4 -2.4,6.3 -5.9,6.6 z"
           class="st0"
           id="path10" />
      </g>
      <path
         d="m 60,20.5 c -1.3,0.1 -2.1,0.2 -2.3,0.3 l -0.1,0.1 c -0.3,0.1 -0.7,0.3 -1.2,0.3 -0.6,0 -1.3,-0.2 -1.8,-0.7 -0.2,-0.2 -0.4,-0.4 -0.5,-0.6 h -2.3 c -0.4,0 -0.8,-0.1 -1.1,-0.3 -0.1,0.1 -0.3,0.1 -0.4,0.2 -0.8,0.4 -1.5,0.4 -2,0.4 h -0.5 c -1.5,0 -2.7,-0.5 -3.5,-1.4 -0.5,0.5 -1.2,0.8 -1.9,0.8 l -3.7,0.1 c -1.3,0 -2.5,-1 -2.7,-2.2 -0.5,0.3 -1,0.5 -1.6,0.5 -0.6,0 -1.2,-0.2 -1.7,-0.5 -0.1,-0.1 -0.2,-0.2 -0.3,-0.2 -0.3,0.2 -0.7,0.2 -1.1,0.2 H 31 c -0.4,1.2 -1.1,2 -2.2,2.5 -0.5,0.2 -1.1,0.4 -1.6,0.4 -0.5,0 -1.1,-0.1 -1.6,-0.3 -0.5,-0.2 -0.9,-0.5 -1.2,-0.8 -0.2,0.1 -0.4,0.1 -0.6,0.2 l -2.9,0.4 h -0.4 c -0.3,0 -0.5,0 -0.8,-0.1 -0.4,0.4 -0.9,0.6 -1.3,0.8 -0.8,0.4 -1.5,0.4 -2,0.4 h -0.5 c -1.8,0 -3.2,-0.8 -4,-1.9 -0.8,0.5 -1.8,0.8 -2.7,0.8 H 8.6 C 8.6,20 8.5,20 8.5,20.1 8,20.6 7.3,21 6.6,21 H 6.4 C 5,21 3.8,19.9 3.7,18.4 v -0.1 c 0,-0.5 -0.1,-1.4 0,-2.4 0,-0.7 0.1,-1.8 0.1,-1.8 0,-0.7 0.3,-1.3 0.7,-1.8 C 4.1,11.5 4,10.6 4.2,9.6 V 9.4 C 4.3,8.8 4.4,7.9 4.8,7 5.5,5.7 6.8,5 8.3,5 H 9 c 0.5,-0.4 1.1,-0.7 1.8,-0.7 1.5,0 2.7,1.3 2.7,2.8 V 8.2 C 14,8 14.6,7.9 15.2,7.9 c 0.3,0 0.5,0 0.8,0.1 0.4,-0.5 1,-0.8 1.6,-0.9 0.1,-0.2 0.2,-0.3 0.3,-0.5 0.4,-0.6 1.1,-1 1.8,-1.1 0.6,-0.1 1.8,-0.2 3.2,-0.2 1.6,0 2.9,0.2 3.9,0.7 0.3,-1.1 1.1,-1.9 2.3,-2.1 l 2.6,-0.4 h 0.4 c 0.8,0 1.5,0.3 2,0.9 0.2,0.2 0.5,0.6 0.6,0.9 l 0.1,0.3 c 0.5,-0.3 1,-0.5 1.6,-0.5 L 40.3,5 c 1.9,0 3.6,-0.1 3.6,-0.2 h 0.2 c 0.7,0 1.5,0.3 2,0.8 0.4,0.4 0.7,0.9 0.8,1.5 h 0.2 c 0.3,0 0.5,0 0.8,0.1 0.4,-0.5 1,-0.8 1.6,-0.9 C 50,5.6 50.9,5 51.9,5 h 2.6 C 55,4.4 55.7,4 56.6,4 h 3.2 c 1.5,0 2.7,1.2 2.8,2.7 0,1.1 -0.6,2.1 -1.5,2.5 v 6.1 c 0.8,0.4 1.4,1.3 1.5,2.3 0.1,1.5 -1.1,2.8 -2.6,2.9 z"
         class="st1"
         id="path14" />
      <path
         d="m 32.3,8.5 -0.7,3.6 2,-0.3 z"
         class="st1"
         id="path16" />
      <path
         d="M 8.4,12 C 7.7,11.9 7.3,11.4 7.5,10 V 9.8 C 7.7,8.6 7.8,8.3 8.4,8.3 c 0.2,0 0.4,0.1 0.6,0.3 0.2,0.2 0.6,0.5 0.8,1.1 0.2,0.4 0.2,0.7 0.3,1 v 0.4 c 0,0.2 0.2,0.4 0.5,0.5 0.3,0.1 0.6,-0.2 0.7,-0.5 0,0 0.2,-3.8 0.2,-3.9 0,-0.3 -0.3,-0.6 -0.6,-0.6 -0.3,0 -0.6,0.3 -0.6,0.6 V 8.3 C 9.8,7.8 9.2,7.3 8.5,7.3 6.6,7 6.4,8.7 6.3,9.7 v 0.2 c -0.2,1.9 0.4,3.1 1.9,3.4 1.6,0.3 2.7,0.6 2.7,1.6 0,0.4 -0.2,0.8 -0.6,1.1 -0.4,0.4 -1,0.5 -1.6,0.4 C 8.5,16.4 8.4,16.3 8.2,16.3 8,16.2 7.4,15.9 7.2,15.5 7.1,15.1 7,14.6 7,14.3 v -0.2 c 0,-0.3 -0.3,-0.6 -0.6,-0.6 -0.3,0 -0.6,0.3 -0.6,0.6 0,0 0,1.2 -0.1,1.9 -0.1,1.2 0,2.1 0,2.2 0,0.3 0.3,0.6 0.6,0.6 0.3,0 0.6,-0.3 0.6,-0.6 v -1.1 c 0.4,0.3 1,0.6 1.7,0.7 0.9,0.2 1.8,-0.1 2.5,-0.7 0.6,-0.5 1,-1.3 1,-2 0,-2.5 -2.5,-2.9 -3.7,-3.1 m 16.8,-1.7 c -0.1,0.1 -0.2,0.2 -0.4,0.3 -0.1,0.1 -0.4,0.2 -0.5,0.2 L 24,10.9 c -0.4,0.2 -1,0.3 -1.6,0.4 V 8.5 c 1.6,0 3,0.1 3.3,0.6 v 0.2 c 0,0.2 -0.2,0.6 -0.5,1 m 3.5,5.4 c -0.3,-0.1 -0.7,0.1 -0.8,0.4 -0.2,0.7 -0.4,0.7 -0.5,0.8 -0.1,0.1 -0.3,0 -0.6,-0.1 0,0 -0.1,-0.2 -0.2,-0.3 -0.1,-0.2 -0.2,-1 -0.2,-1.5 0,-1.8 -0.4,-2.8 -0.9,-3.3 0.3,-0.2 0.6,-0.5 0.6,-0.5 0.7,-1 0.9,-1.8 0.5,-2.5 -1,-1.7 -5.3,-1.2 -6.7,-1 -0.3,0 -0.6,0.4 -0.5,0.7 0,0.3 0.4,0.6 0.7,0.5 0.3,0 0.6,-0.1 0.9,-0.1 v 2.8 h -0.3 c -0.3,0 -0.6,0.3 -0.6,0.6 0,0.3 0.3,0.6 0.6,0.6 H 21 v 3.5 l -0.8,0.1 c -0.3,0 -0.6,0.4 -0.5,0.7 0,0.3 0.4,0.6 0.7,0.5 l 2.9,-0.4 c 0.3,0 0.6,-0.4 0.5,-0.7 0,-0.3 -0.4,-0.6 -0.7,-0.5 l -0.9,0.1 v -3.5 c 0.6,-0.1 1.1,-0.2 1.6,-0.4 H 24 c 0.2,0 0.4,0.1 0.5,0.3 0.2,0.3 0.4,0.9 0.5,2.4 0,0.3 0.1,1.5 0.3,2 0.1,0.2 0.4,0.7 0.9,0.9 0.4,0.1 0.9,0.3 1.5,0 0.5,-0.3 0.9,-0.6 1.1,-1.5 0.4,-0.2 0.2,-0.5 -0.1,-0.6 m 21.8,-1.9 c -0.3,0 -0.6,0.3 -0.6,0.6 v 0.8 c 0,0.3 -0.1,0.7 -0.2,0.8 -0.1,0.2 -0.2,0.3 -0.4,0.5 -0.1,0.1 -0.3,0.2 -0.5,0.3 -0.2,0.1 -0.3,0.1 -0.7,0.1 H 47.7 C 46.1,17 45.9,15.7 45.9,15.4 v -2.6 c 0.1,-1 0.3,-1.7 0.7,-2 0.3,-0.2 0.7,-0.1 1.4,0.1 0.8,0.3 1.3,1.2 1.4,1.2 0.1,0.2 0.4,0.3 0.7,0.3 0.3,-0.1 0.4,-0.3 0.4,-0.6 V 9.1 c 0,-0.3 -0.3,-0.6 -0.6,-0.6 -0.3,0 -0.6,0.3 -0.6,0.6 v 1.1 C 49.1,10 48.8,9.9 48.5,9.7 48.2,9.5 47,9 46.1,9.6 45.4,10.1 44.9,11 44.8,12.5 v 2.8 c 0.1,0.9 0.8,2.7 3,2.7 h 0.3 c 0.4,0 0.8,0 1.2,-0.2 0.3,-0.1 0.6,-0.3 0.9,-0.6 0.2,-0.2 0.3,-0.4 0.5,-0.7 0.2,-0.4 0.3,-1.1 0.4,-1.3 v -1 c 0,-0.2 -0.3,-0.4 -0.6,-0.4 m 9.9,4 c 0,-0.3 -0.3,-0.6 -0.6,-0.6 -0.2,0 -0.5,0 -0.8,0.1 0,-1 0,-3.1 -0.1,-9.9 h 0.9 c 0.3,0 0.6,-0.3 0.6,-0.6 0,-0.3 -0.3,-0.6 -0.6,-0.6 l -3.2,0.1 c -0.3,0 -0.6,0.3 -0.6,0.6 0,0.3 0.3,0.6 0.6,0.6 h 1 v 4.2 L 54,12.3 V 8.5 h 1 c 0.3,0 0.6,-0.3 0.6,-0.6 0,-0.3 -0.3,-0.6 -0.6,-0.6 h -3.2 c -0.3,0 -0.6,0.3 -0.6,0.6 0,0.3 0.3,0.6 0.6,0.6 h 1 v 8.1 h -1 c -0.3,0 -0.6,0.3 -0.6,0.6 0,0.3 0.3,0.6 0.6,0.6 l 3.3,0.1 c 0.3,0 0.6,-0.3 0.6,-0.6 0,-0.3 -0.3,-0.6 -0.6,-0.6 h -1 V 13.6 L 57.7,13 v 4.6 c -0.8,0.2 -1.4,0.2 -1.7,0.6 -0.2,0.2 -0.2,0.6 0.1,0.8 0.2,0.2 0.5,0.1 0.9,0 0.3,-0.2 1.5,-0.3 2.9,-0.4 0.3,-0.2 0.5,-0.5 0.5,-0.8"
         class="st0"
         id="path18" />
      <path
         d="m 31.6,12.1 0.7,-3.6 1.3,3.3 z m 5.3,1 c -0.2,0.1 -0.5,0.2 -1.1,0.5 L 35,11.7 32.7,6.2 C 32.7,6.1 32.6,5.9 32.5,5.9 32.4,5.8 32.2,5.7 32,5.7 L 29.4,6 c -0.3,0 -0.6,0.3 -0.5,0.7 0,0.3 0.3,0.6 0.7,0.5 0,0 1,-0.1 1.8,-0.2 -0.2,1.1 -1.1,5.6 -1.4,7 l -1.8,-0.1 c -0.3,0 -0.6,0.2 -0.6,0.6 0,0.3 0.2,0.6 0.6,0.6 l 3,0.1 c 0.3,0 0.6,-0.2 0.6,-0.6 0,-0.3 -0.2,-0.6 -0.6,-0.6 l 0.1,-0.9 2.8,-0.5 0.6,1.5 c -0.5,0.3 -0.7,0.4 -1,0.7 -0.2,0.3 -0.1,0.6 0.1,0.8 0.3,0.2 0.7,0.1 0.9,-0.1 0.3,-0.4 1.4,-0.9 2.5,-1.3 0.3,-0.1 0.5,-0.5 0.4,-0.8 -0.1,-0.2 -0.4,-0.4 -0.7,-0.3"
         class="st0"
         id="path20" />
      <path
         d="m 44.1,7 c 0,0 -1.8,0.1 -3.8,0.2 l -3.9,0.1 c -0.2,0 -0.3,0.1 -0.5,0.2 -0.1,0.1 -0.2,0.3 -0.1,0.5 l 0.5,3 c 0,0.3 0.4,0.6 0.7,0.5 0.3,0 0.5,-0.3 0.5,-0.6 0,0 -0.2,-1.6 -0.4,-2.4 h 2.6 v 7.9 h -1.3 c -0.3,0 -0.6,0.3 -0.6,0.6 0,0.3 0.3,0.6 0.6,0.6 l 3.7,-0.1 c 0.3,0 0.6,-0.3 0.6,-0.6 0,-0.3 -0.3,-0.6 -0.6,-0.6 H 40.9 V 8.4 c 1,0 1.9,-0.1 2.5,-0.1 v 1.2 c 0,0.6 0.1,0.8 0.1,0.9 0.2,0.3 0.5,0.4 0.8,0.2 0.2,-0.1 0.3,-0.4 0.3,-0.6 0,0 0,-1.4 0.1,-2.2 0,-0.2 0,-0.3 -0.2,-0.5 C 44.5,7.1 44.3,7 44.1,7 M 18.6,14.4 C 18.3,14.4 18,14.7 18,15 v 0.9 c 0,0.2 -0.1,0.6 -0.2,0.8 -0.1,0.2 -0.2,0.3 -0.4,0.5 -0.1,0.1 -0.3,0.2 -0.5,0.3 -0.2,0.1 -0.3,0.1 -0.7,0.1 H 15.8 C 14.2,17.6 14,16.4 14,16.1 v -2.6 c 0.1,-1 0.3,-1.7 0.7,-2 0.3,-0.2 0.7,-0.1 1.4,0.1 0.8,0.3 1.4,1.2 1.4,1.2 0.1,0.2 0.4,0.3 0.7,0.3 0.3,-0.1 0.4,-0.3 0.4,-0.6 V 9.8 c 0,-0.3 -0.3,-0.6 -0.6,-0.6 -0.3,0 -0.6,0.3 -0.6,0.6 v 1.1 c -0.2,-0.2 -0.5,-0.4 -0.8,-0.5 -0.4,-0.2 -1.5,-0.6 -2.5,-0.1 -0.7,0.5 -1.2,1.4 -1.3,2.9 V 16 c 0.1,0.9 0.8,2.7 3.1,2.7 h 0.3 c 0.4,0 0.8,0 1.2,-0.2 0.3,-0.1 0.6,-0.3 0.9,-0.6 0.2,-0.2 0.3,-0.4 0.5,-0.7 0.2,-0.4 0.3,-1.1 0.4,-1.3 v -1 c 0,-0.2 -0.3,-0.5 -0.6,-0.5"
         class="st0"
         id="path22" />
    </g>
    <g
       id="g988">
      <g
         id="g1177"
         transform="matrix(0.73133155,0,0,0.73133155,52.615704,-31.322093)"
         style="stroke-width:0.99954665;stroke-miterlimit:4;stroke-dasharray:none;stroke:none;stroke-opacity:1">
        <g
           transform="matrix(0.26458333,0,0,0.26458333,44.469977,49.983743)"
           id="ID0.5927098118700087"
           style="stroke-width:3.77781416;stroke-miterlimit:4;stroke-dasharray:none;stroke:none;stroke-opacity:1">
          <g
             id="ID0.4447302892804146"
             style="stroke-width:3.77781416;stroke-miterlimit:4;stroke-dasharray:none;stroke:none;stroke-opacity:1">
            <g
               id="ID0.7447618972510099"
               style="stroke-width:3.77781416;stroke-miterlimit:4;stroke-dasharray:none;stroke:none;stroke-opacity:1">
              <path
                 transform="matrix(1.3673689,0,0,1.3673689,-439.99391,-27.042096)"
                 d="M 420.01758 12.914062 C 419.53452 12.90308 419.04831 12.907623 418.55859 12.927734 C 418.51033 12.927734 418.46233 12.935547 418.41406 12.935547 C 417.0867 13.007949 416.27445 13.056408 415.96875 13.064453 C 415.46998 13.080542 414.97877 13.128306 414.49609 13.216797 C 411.82527 13.731654 409.41192 14.987814 407.32031 16.966797 C 407.28813 16.990931 407.2646 17.014696 407.23242 17.046875 C 403.67672 20.491892 401.22729 23.931464 399.77539 27.507812 C 398.79906 25.167462 397.23256 23.721331 395.78711 22.839844 C 393.45416 21.423986 390.77625 20.883948 388.24219 21.318359 C 387.22856 21.479252 386.31 21.737368 385.44922 22.107422 C 384.77347 22.388985 384.13827 22.726674 383.54297 23.128906 C 382.20756 22.839299 380.80788 22.685547 379.34375 22.685547 C 376.17416 22.685547 373.12492 23.410314 370.28516 24.826172 C 369.51921 25.212689 368.62687 25.787864 367.73242 26.599609 C 367.56402 24.881082 366.85603 22.328115 364.375 19.988281 C 362.11445 17.848405 359.76597 17.163775 358.19727 16.970703 C 357.64218 16.898301 357.07876 16.881652 356.51562 16.921875 C 351.04527 17.275839 348.84193 17.557953 347.61914 17.783203 C 346.21133 17.960185 344.81876 18.137471 343.45117 18.314453 C 343.16961 18.354676 342.88875 18.40244 342.61523 18.466797 C 337.45057 19.633271 333.72478 22.891482 332.36523 27.396484 C 331.84233 29.093905 331.54568 31.668476 332.87305 34.628906 C 333.77405 36.672247 335.31897 38.402502 337.53125 39.818359 C 339.18845 40.864163 341.14151 41.451035 343.20898 41.523438 C 343.50664 42.778402 343.70033 43.960151 343.79688 45.070312 C 341.62481 43.228088 338.95383 42.230469 336.1543 42.230469 C 333.35476 42.230469 330.42737 43.163555 326.58203 45.279297 C 324.80416 46.276833 322.36544 48.288728 320.86914 52.158203 C 320.01641 54.330258 319.58984 56.518559 319.58984 58.650391 C 319.58984 59.084802 319.60649 59.486672 319.63867 59.880859 C 319.55823 63.903183 320.90271 70.434714 329.01172 75.607422 C 333.78219 78.632209 338.88115 80.169922 344.15039 80.169922 C 344.99508 80.169922 345.80802 80.129042 346.57227 80.056641 C 346.72511 80.040551 346.88621 80.016321 347.03906 79.992188 C 350.69938 79.437106 353.99767 78.04603 356.85352 75.841797 C 357.82378 75.09116 358.70982 74.220479 359.51953 73.25 C 359.48612 73.951581 359.45703 74.615956 359.45703 75.056641 C 359.45703 83.326538 364.88765 87.091797 369.93164 87.091797 C 372.38526 87.091797 374.87066 86.263827 377.52539 84.566406 C 378.53902 83.91479 379.40089 83.076686 380.06055 82.111328 C 380.56736 82.095239 381.07303 82.054592 381.58789 81.990234 C 392.91475 80.558287 399.97775 76.182381 402.57617 68.982422 C 402.68737 68.683041 402.78462 68.37585 402.87305 68.058594 C 405.70985 71.307412 409.28712 73.653451 413.5625 75.033203 C 415.13121 75.56415 416.80486 75.837891 418.55859 75.837891 C 422.89466 75.837891 427.19076 74.324408 431.3418 71.339844 C 432.13187 70.770143 432.86697 70.170651 433.57031 69.552734 C 434.36344 75.804107 439.55416 79.067744 444.70898 79.519531 C 444.8377 79.535621 444.9748 79.542737 445.10352 79.550781 C 446.84116 79.623183 448.75538 79.477708 450.73438 79.099609 C 450.83091 79.08352 450.9269 79.069056 451.02344 79.044922 C 452.94611 78.618556 453.79875 78.48921 454.07227 78.457031 C 455.91449 78.280049 457.3623 78.207591 458.34375 78.255859 C 460.41122 78.424797 462.47954 78.127058 464.47461 77.378906 C 465.35148 79.80839 467.24974 81.754785 469.69531 82.671875 C 471.69038 83.420027 472.89689 83.871094 474.64258 83.871094 C 475.01263 83.871094 475.3819 83.847096 475.75195 83.798828 C 478.77674 83.42073 481.53595 81.835637 483.53906 79.341797 C 485.05146 77.451305 485.99392 75.440521 486.33984 73.373047 C 486.4042 73.011038 486.44485 72.639585 486.46094 72.269531 C 486.65401 67.466877 486.726 63.936503 486.67773 61.466797 C 486.66969 61.145011 486.64569 60.831087 486.60547 60.525391 C 486.56525 59.720926 486.46721 57.69336 486.25 52.617188 L 486.25 48.732422 C 486.1776 46.142046 486.12225 43.912072 486.08203 42.085938 C 488.09319 41.257338 489.85483 39.970395 491.23047 38.289062 C 492.767 36.511196 493.61133 34.282863 493.61133 31.925781 C 493.61133 28.249378 491.64014 24.928242 488.20508 22.8125 C 485.73537 21.284017 483.05777 20.640079 480.37891 20.929688 C 475.47167 21.380188 471.89057 21.621654 469.72656 21.669922 C 469.63003 21.669922 469.53404 21.66969 469.4375 21.677734 L 466.75781 21.814453 C 466.52452 21.830542 466.2997 21.854772 466.06641 21.878906 C 462.80832 22.305273 459.99395 23.82568 457.90234 26.279297 C 456.49453 25.458743 454.53919 24.566406 452.16602 24.566406 C 451.49027 24.566406 450.56565 24.606821 449.23828 24.695312 C 448.27292 24.751626 447.74204 24.775391 447.47656 24.775391 C 444.84596 24.654721 443.21171 24.727507 441.76367 25.033203 C 441.02331 25.187199 440.30355 25.426336 439.60742 25.75 C 439.39442 25.304858 439.17774 24.871283 438.95117 24.464844 C 436.7228 20.474699 433.58515 17.425689 429.61914 15.398438 C 426.61346 13.828725 423.39897 12.990943 420.01758 12.914062 z M 560.56055 18.541016 C 560.07749 18.530033 559.59128 18.534575 559.10156 18.554688 C 559.05329 18.554688 559.0053 18.5625 558.95703 18.5625 C 557.62966 18.634902 556.81742 18.683362 556.51172 18.691406 C 556.01295 18.707496 555.52174 18.757212 555.03906 18.845703 C 552.36824 19.360561 549.95489 20.614767 547.86328 22.59375 C 547.8311 22.617884 547.80757 22.64165 547.77539 22.673828 C 543.64044 26.680062 540.99292 30.679136 539.68164 34.894531 C 539.6736 34.918665 539.66625 34.950475 539.6582 34.974609 C 538.98245 37.235155 538.53236 39.028198 538.29102 40.419922 C 538.0899 41.554217 537.94554 41.964612 537.9375 41.972656 C 537.7927 42.366844 537.67052 42.76183 537.58203 43.164062 C 537.53291 43.306501 537.49507 43.451188 537.45312 43.595703 C 535.91843 43.85038 534.43599 44.392127 533.09766 45.210938 C 531.28761 46.313054 529.91109 47.834158 529.06641 49.587891 C 527.95624 51.454249 527.56191 53.674113 527.98828 55.830078 C 528.04459 56.119685 528.10189 56.409147 528.1582 56.714844 L 527.89258 56.738281 C 527.36968 51.52535 527.27976 50.15842 527.26367 49.8125 L 527.26367 46.441406 C 527.26367 46.224201 527.25632 46.008221 527.24023 45.791016 C 527.20001 45.276158 527.15913 44.785413 527.12695 44.302734 C 527.82684 44.05335 528.49556 43.746775 529.12305 43.384766 C 532.38917 41.510363 534.33594 38.027951 534.33594 34.013672 C 534.33594 31.165867 533.2987 28.485771 531.4082 26.474609 C 529.96821 24.938082 527.36178 23.121094 523.08203 23.121094 L 522.96875 23.121094 C 518.17414 23.177406 516.21172 23.304879 515.10156 23.433594 C 515.00503 23.433594 514.90755 23.433826 514.79492 23.425781 C 513.31471 23.21662 512.21294 23.121094 511.26367 23.121094 C 500.98261 23.121094 498.24023 30.055665 498.24023 34.150391 C 498.24023 35.469713 498.45621 36.803725 498.89062 38.123047 C 498.90672 38.179359 498.92336 38.229076 498.93945 38.277344 C 499.97721 41.294086 502.21442 43.56939 505.20703 44.751953 C 505.82647 51.115269 505.95508 54.165477 505.95508 55.605469 L 505.95508 59.128906 C 503.19576 60.472362 501.61789 62.50681 500.78125 63.962891 C 499.17232 66.71416 499.48582 69.49718 499.63867 70.880859 C 499.84783 72.690905 500.60362 74.405847 501.81836 75.773438 C 504.24784 78.508617 507.70763 80.019531 511.54492 80.019531 C 512.41374 80.019531 513.1615 79.931105 516.02539 79.408203 C 519.74202 78.997926 522.4213 78.748647 523.99805 78.660156 C 524.07045 78.652112 524.14267 78.652576 524.20703 78.644531 C 533.32966 77.920513 536.049 77.712098 536.65234 77.671875 C 537.75446 77.623607 538.89775 77.55873 540.07227 77.486328 C 542.1942 77.360094 544.10807 76.864213 545.7832 76.021484 C 548.16849 78.074071 550.94177 79.638534 554.10742 80.660156 C 555.67613 81.191103 557.34783 81.464844 559.10156 81.464844 C 563.43763 81.464844 567.73373 79.951361 571.88477 76.966797 C 573.23605 75.992419 574.45249 74.941871 575.54883 73.828125 C 575.86269 73.867353 576.1389 73.917917 576.47461 73.951172 C 576.52288 73.959217 576.57087 73.966797 576.61914 73.966797 C 581.37353 74.360985 582.44467 74.4661 582.66992 74.490234 C 583.76399 74.643083 584.47072 74.738841 584.80859 74.787109 C 585.30736 74.8756 585.81476 74.916016 586.3457 74.916016 C 587.76961 74.916016 589.16184 74.658924 590.45703 74.160156 C 591.07647 75.197916 591.88011 76.139127 592.85352 76.935547 C 594.84859 78.576655 597.19701 79.445313 599.64258 79.445312 C 599.74716 79.445312 599.85245 79.445545 599.95703 79.4375 C 603.11053 79.33292 605.60454 78.568898 607.59961 77.128906 C 607.71223 77.04846 607.81728 76.967397 607.92188 76.878906 C 608.81576 76.167306 609.82266 75.503844 610.90234 74.875 C 611.46722 75.489624 612.09931 76.050001 612.80859 76.533203 C 614.65082 77.788168 616.80632 78.457031 619.05078 78.457031 C 619.44497 78.457031 619.83996 78.432801 620.24219 78.392578 L 623.66992 78.392578 C 623.90322 78.392578 623.99055 78.391922 626.82227 78.279297 C 628.55991 78.206895 629.84007 78.151784 630.64453 78.103516 C 635.78506 77.950667 641.40736 76.389421 647.39258 73.453125 C 648.21543 73.047685 648.9882 72.63274 649.73047 72.210938 C 650.71384 75.185226 652.80489 76.757835 653.85352 77.390625 C 653.99027 77.463027 654.1191 77.542833 654.25586 77.615234 C 656.33942 78.717351 658.78435 79.28125 661.51953 79.28125 C 662.46075 79.28125 663.58056 79.207536 665.05273 79.054688 C 665.99396 78.958151 666.38737 78.933826 666.5 78.925781 L 670.87695 78.925781 C 672.6146 78.925781 674.8269 79.071489 677.44141 79.369141 C 681.84987 79.859864 683.61932 79.916016 684.56055 79.916016 L 688.15625 79.916016 C 689.14574 80.109087 690.06259 80.197266 690.93945 80.197266 C 693.55678 80.197266 695.98416 79.388277 697.99219 77.921875 C 699.60874 78.692181 701.63846 79.230469 704.21289 79.230469 C 705.84113 79.230469 707.88545 78.982235 710.63672 78.447266 C 713.32604 77.975849 715.3708 77.608647 716.76172 77.349609 C 718.14701 77.092181 719.41936 76.624845 720.54883 75.980469 C 720.60997 76.050457 720.66933 76.118316 720.73047 76.1875 C 724.43262 80.355432 728.51837 81.230469 731.29297 81.230469 C 731.69118 81.230469 732.09304 81.213363 732.55078 81.169922 C 735.98263 80.833656 738.70697 79.965615 740.875 78.517578 C 742.96661 77.121027 744.72554 75.144856 746.25 72.480469 C 747.00217 71.166778 749.29288 67.168397 748.07812 62.591797 C 748.03066 62.410792 747.97669 62.234427 747.91797 62.056641 C 746.43212 57.611169 742.41385 54.738281 737.68359 54.738281 C 737.34733 54.738281 737.01538 54.750452 736.68555 54.775391 C 736.33641 52.073194 735.79939 49.692598 735.0625 47.59375 C 735.9265 46.634828 736.6609 45.616357 737.27148 44.535156 C 738.32453 42.750854 738.89691 40.60394 739.01758 37.990234 C 739.18169 35.674985 739.01876 33.809089 738.50391 32.126953 C 738.49506 32.097992 738.48541 32.069976 738.47656 32.041016 C 737.25378 28.18763 734.77285 24.943343 731.30078 22.65625 C 731.24688 22.620854 731.19142 22.586522 731.13672 22.552734 C 728.19157 20.70327 724.15575 19.629155 718.43359 19.173828 C 718.27753 19.161761 718.11976 19.15246 717.96289 19.148438 C 715.57283 19.085688 714.46442 19.044009 713.96484 19.021484 C 713.17566 18.908055 712.35904 18.901507 711.53125 19.011719 C 706.25235 19.718843 702.74137 20.244836 700.82031 20.613281 C 700.12169 20.721574 699.40439 20.891953 698.68945 21.117188 C 697.26021 20.013892 695.83036 19.593139 695.13867 19.396484 C 693.36885 18.889672 691.70463 18.825491 690.0957 19.1875 C 677.61846 21.681341 668.59095 22.991355 663.27344 23.087891 L 660.80469 23.087891 C 660.59553 23.087891 660.38666 23.097424 660.18555 23.105469 C 657.08031 23.330719 654.15214 24.472885 651.72266 26.427734 C 650.87945 27.105066 650.19789 27.919962 649.66797 28.8125 C 646.1794 26.088822 642.28068 24.226256 637.98828 23.261719 C 637.94001 23.253674 637.88421 23.246558 637.83594 23.230469 C 635.89718 22.836281 633.57209 22.50594 630.66797 22.232422 C 626.65369 21.886502 625.43128 21.837891 624.69922 21.837891 C 624.4257 21.837891 624.17493 21.847192 623.93359 21.863281 C 623.86924 21.855237 623.79701 21.845935 623.72461 21.837891 C 623.65221 21.829846 623.58779 21.822498 623.52344 21.814453 C 622.18803 21.693783 621.32075 21.636719 620.62891 21.636719 C 615.53664 21.636719 611.3132 24.147886 609.32617 28.363281 C 608.6102 29.843496 608.24805 31.388093 608.24805 32.964844 C 608.24805 37.164149 610.79004 40.872756 614.88477 42.642578 C 615.16633 42.763248 615.44672 42.875888 615.73633 42.980469 C 615.96445 47.052025 616.09297 49.250677 616.25195 52.015625 C 614.85134 51.536609 613.37291 51.336269 611.87109 51.449219 C 611.52517 50.548218 611.2279 49.759503 610.97852 49.091797 C 610.93829 48.987216 610.88983 48.883877 610.84961 48.779297 C 608.5408 43.260669 606.84384 39.205611 605.75781 36.615234 C 605.71759 36.518699 605.67694 36.43052 605.63672 36.333984 C 605.08164 35.127287 604.93773 34.709449 604.92969 34.693359 C 604.8412 34.419841 604.7359 34.146333 604.61523 33.880859 C 604.31758 33.213154 604.08472 32.688645 603.92383 32.310547 C 603.85143 32.093341 603.67451 31.507286 603.3125 30.171875 C 602.70915 27.919374 602.05688 26.236963 601.23633 24.861328 C 599.47455 21.884809 596.48217 19.938317 593.03906 19.503906 C 592.66901 19.455638 592.29779 19.431641 591.92773 19.431641 C 591.57377 19.431641 591.57365 19.432857 589.22461 19.59375 C 585.96653 19.810955 583.2252 20.131763 580.83594 20.574219 L 580.71484 20.597656 C 579.63686 20.814862 578.84861 20.960337 578.3418 21.048828 C 576.5935 21.356288 574.94456 22.070223 573.5 23.136719 C 572.4609 22.346135 571.3547 21.633992 570.16406 21.025391 C 567.15838 19.455679 563.94194 18.617895 560.56055 18.541016 z M 695.23633 46.072266 C 695.10077 46.673239 695.02262 47.291323 695.01562 47.921875 C 694.45371 47.776283 693.87805 47.672465 693.28906 47.617188 L 693.28906 46.933594 C 693.28906 46.78879 693.28148 46.635038 693.27344 46.490234 C 693.94928 46.406559 694.60046 46.257782 695.23633 46.072266 z M 441.94922 53.847656 C 441.80442 54.475139 441.73242 55.12768 441.73242 55.779297 L 441.73242 57.162109 C 441.53944 57.223279 441.36775 57.299668 441.18359 57.367188 C 441.46635 56.365973 441.69799 55.371319 441.85547 54.390625 C 441.89101 54.195 441.91547 54.037608 441.94922 53.847656 z M 581.00391 73.130859 C 581.82446 73.750297 582.7659 74.231181 583.77148 74.544922 C 582.75786 74.24727 581.82446 73.758342 581.00391 73.130859 z "
                 style="fill:#ffab1a;fill-opacity:1;stroke:#ffffff;stroke-width:24.99999989;stroke-miterlimit:4;stroke-dasharray:none;stroke-opacity:1;paint-order:stroke fill markers"
                 id="ID0.10947818402200937" />
            </g>
          </g>
          <g
             id="ID0.1137806847691536"
             style="stroke-width:3.77781416;stroke-miterlimit:4;stroke-dasharray:none;stroke:none;stroke-opacity:1">
            <path
               id="ID0.6012937603518367"
               fill="#ffffff"
               d="m 48.724435,13.45925 c -0.11682,1.39293 -0.98802,2.32254 -2.61261,2.78586 -1.27809,0.29106 -2.55618,0.58113 -3.83229,0.8712 0.75438,1.68399 1.56816,4.2669 2.43837,7.74972 1.04544,4.12236 1.56816,7.31511 1.56816,9.57924 v 7.92396 c 0,4.23819 -0.26235,7.34481 -0.78408,9.31788 -0.92862,3.48381 -1.50975,5.54499 -1.74141,6.18255 -1.04544,2.90367 -2.46807,5.05197 -4.26789,6.4449 -2.03247,1.56717 -4.38372,2.55321 -7.05276,2.9601 -0.58113,0.05742 -1.21869,0.08712 -1.91664,0.08712 -4.41243,0 -8.68032,-1.30581 -12.80169,-3.91842 -4.64409,-2.96109 -6.7914,-6.47262 -6.44391,-10.53756 -0.05841,-0.29007 -0.08712,-0.66726 -0.08712,-1.13256 0,-1.27611 0.27423,-2.62548 0.82764,-4.0491 0.55143,-1.42263 1.29096,-2.39481 2.22057,-2.91753 2.84328,-1.56717 4.99158,-2.35125 6.44391,-2.35125 0.98604,0 1.87209,0.39204 2.65617,1.17612 0.78408,0.78408 1.17612,1.67013 1.17612,2.65716 0,0.81279 -0.34848,1.50975 -1.04544,2.0889 -0.23265,0.17424 -0.75537,0.29205 -1.56717,0.34947 -0.92862,0.11682 -1.49589,0.01485 -1.69884,-0.30591 -0.20394,-0.31779 -0.65241,-0.76824 -1.34937,-1.34937 -0.23166,-0.11484 -0.58113,-0.05742 -1.04544,0.17424 -0.75537,0.29205 -1.18998,0.98802 -1.30581,2.08989 0.05841,0.58113 0.08712,1.42362 0.08712,2.52549 -0.05841,1.91664 0.72567,3.8907 2.35125,5.92119 0.17523,0.17424 1.13256,0.81378 2.87397,1.91664 3.42441,2.08989 6.41421,3.13434 8.9694,3.13434 0.63855,0 1.24839,-0.05742 1.82952,-0.17424 0.87021,-0.11484 2.00178,-0.55143 3.3957,-1.30581 1.97307,-2.08989 3.33828,-4.99257 4.09365,-8.70804 0.40491,-2.08989 0.72468,-5.36976 0.95733,-9.83961 v -5.92119 c 0,-3.65706 -0.66825,-7.6626 -2.00178,-12.01761 0,-0.17424 0,-0.43461 0,-0.78408 -0.23265,-0.17424 -0.43461,-0.60885 -0.60984,-1.30581 -0.29106,-0.92862 -0.4653,-1.45035 -0.52173,-1.56717 -0.05841,-0.52173 -0.14553,-1.11672 -0.26136,-1.78497 -0.11682,-0.66726 -0.4356,-1.089 -0.95832,-1.26324 -0.29106,-0.05742 -1.2771,0.20493 -2.9601,0.78408 -1.85922,0.58113 -3.13533,0.8712 -3.83229,0.8712 -0.69597,0 -1.2771,-0.14454 -1.74141,-0.4356 -0.81378,-0.52173 -1.3365,-1.04445 -1.56717,-1.56717 -0.23265,-0.52173 -0.29106,-0.95832 -0.17424,-1.30581 0.52173,-1.79784 2.0592,-2.9898 4.61439,-3.56994 1.79883,-0.23067 3.62736,-0.46431 5.48658,-0.69597 1.33551,-0.29007 4.6431,-0.60984 9.92673,-0.95832 0.46431,0.05841 0.95832,0.33462 1.48005,0.82764 0.52173,0.49302 0.78408,0.94149 0.78408,1.34739 z"
               stroke-width="1.1"
               style="stroke-width:3.77781416;stroke-miterlimit:4;stroke-dasharray:none;stroke:none;stroke-opacity:1" />
          </g>
        </g>
        <g
           transform="matrix(0.26458333,0,0,0.26458333,58.773352,51.57257)"
           id="ID0.9805312547832727"
           style="stroke-width:3.77781416;stroke-miterlimit:4;stroke-dasharray:none;stroke:none;stroke-opacity:1">
          <g
             id="ID0.2794777057133615"
             style="stroke-width:3.77781416;stroke-miterlimit:4;stroke-dasharray:none;stroke:none;stroke-opacity:1">
            <g
               id="ID0.2817511581815779"
               style="stroke-width:3.77781416;stroke-miterlimit:4;stroke-dasharray:none;stroke:none;stroke-opacity:1" />
          </g>
          <g
             id="ID0.20706806425005198"
             style="stroke-width:3.77781416;stroke-miterlimit:4;stroke-dasharray:none;stroke:none;stroke-opacity:1">
            <path
               id="ID0.570444684009999"
               fill="#ffffff"
               d="m 45.258516,49.358696 c 0.3223,4.0007 0.2563,6.5791 -0.1936,7.7407 -1.8722,5.2899 -8.162,8.6108 -18.8672,9.966 -3.6135,0.4521 -7.2248,-1.2573 -10.8383,-5.1282 0,0.5808 0.1287,2.3221 0.3883,5.2261 0.1936,2.1285 0.1606,3.8698 -0.0968,5.2239 -1.6137,1.0318 -2.9029,1.5488 -3.8709,1.5488 -1.485,0 -2.2253003,-1.4509 -2.2253003,-4.3549 0,-0.5159 0.0319,-1.3376 0.0968,-2.4662 0.0638,-1.1275 0.0968,-1.9184 0.0968,-2.3705 0,-1.0967 -0.0968,-1.87 -0.2904,-2.3221 v -5.3218 c 0,-0.1287 0.0319,-0.2739 0.0968,-0.4356 0.0638,-0.1606 0.1287,-0.3058 0.1936,-0.4356 -0.0649,-0.902 -0.033,-2.2891 0.0968,-4.1602 0.1287,-1.1616 0.1287,-1.9019 0,-2.2253 -0.3234,-0.6435 -0.4829,-1.0307 -0.4829,-1.1605 0.2563,-1.8062 1.5807003,-2.7093 3.9666003,-2.7093 1.5477,0 2.4827,0.5489 2.8061,1.6445 0,1.0318 0.1287,2.5487 0.3872,4.5474 0.3883,2.3221 1.6126,4.6453 3.6773,6.9663 2.2572,2.6455 4.4176,3.8709 6.4834,3.6773 2.3221,-0.2563 4.6442,-0.8052 6.9663,-1.6445 3.2252,-1.1616 5.1601,-2.5157 5.8058,-4.0634 0.4499,-1.1616 0.6765,-2.3859 0.6765,-3.6773 0,-3.9336 -1.4509,-6.8695 -4.3538,-8.8044 -1.2914,-0.8382 -3.6773,-1.5158 -7.161,-2.0328 -1.9998,-0.2563 -3.2263,-0.3872 -3.6762,-0.3872 -3.0965,0.0649 -5.984,-0.935 -8.6603,-2.9997 -2.6774,-2.0636 -4.015,-4.4517 -4.015,-7.161 v -5.6111 c 0,-1.2243 0.7095,-4.0953 2.1296,-8.6108 0.6435,-2.1296 0.9988,-3.2571 1.0648,-3.3869 0.5797,-1.3541 1.3211,-2.2572 2.2242,-2.7093 2.1923,-1.0956 4.5144,-1.6445 6.9663,-1.6445 4.7729,0 8.2885,1.9349 10.5468,5.8047 0.1936,0.1936 0.5159,0.484 0.968,0.8712 0.0638,-0.902 0.1936,-2.2891 0.3872,-4.1602 -0.0649,-0.8382 -0.1298,-1.6445 -0.1936,-2.4189 0,-0.9020005 0.4499,-1.5147005 1.3541,-1.8381005 0.2574,-0.1287 0.6127,-0.2255 1.0648,-0.2904 0.6446,-0.1287 1.3387,0.033 2.0812,0.4829 0.7403,0.4521 1.0472,1.8073005 0.9185,4.0634005 -0.0649,1.419 -0.1936,3.4188 -0.3872,5.9983 -0.1936,2.1296 -0.4829,5.3867 -0.8712,9.7735 0.1287,1.0318 0.1287,2.4519 0,4.257 -0.3234,1.2254 -1.2914,1.8381 -2.9029,1.8381 -0.8393,0 -1.6445,-0.2255 -2.4189,-0.6765 -0.3872,-1.2243 -0.5797,-1.7424 -0.5797,-1.5488 0.1276,-1.7413 -0.2266,-4.0634 -1.0648,-6.9663 -0.7106,-1.4828 -1.6929,-3.5948 -2.9513,-6.3371 -1.2584,-2.7412 -2.9194,-4.2097 -4.983,-4.4033 -2.5806,-0.1936 -4.257,0.6776 -5.0314,2.6125 -0.2574,0.8393 -0.6138,2.0658 -1.0637,3.6773 -0.7744,2.387 -1.2584,4.6772 -1.452,6.8695 -0.0649,0.7106 -0.1298,1.001 -0.1936,0.8712 0.1936,1.2914 0.4191,2.5806 0.6776,3.8709 0.3223,1.6126 1.1132,2.8391 2.3705,3.6762 1.2584,0.8393 3.6597,1.3541 7.2083,1.5477 8.7076,0.5181 14.0932,3.5497 16.1579,9.0959 0.3212,0.517 0.6435,1.3871 0.9669,2.6114 z"
               stroke-width="1.1"
               style="stroke-width:3.77781416;stroke-miterlimit:4;stroke-dasharray:none;stroke:none;stroke-opacity:1" />
          </g>
        </g>
        <g
           transform="matrix(0.26458333,0,0,0.26458333,72.015221,48.533829)"
           id="ID0.4667737828567624"
           style="stroke-width:3.77781416;stroke-miterlimit:4;stroke-dasharray:none;stroke:none;stroke-opacity:1">
          <g
             id="ID0.5328715601935983"
             style="stroke-width:3.77781416;stroke-miterlimit:4;stroke-dasharray:none;stroke:none;stroke-opacity:1">
            <g
               id="ID0.6646519578061998"
               style="stroke-width:3.77781416;stroke-miterlimit:4;stroke-dasharray:none;stroke:none;stroke-opacity:1" />
          </g>
          <g
             id="ID0.9338630577549338"
             style="stroke-width:3.77781416;stroke-miterlimit:4;stroke-dasharray:none;stroke:none;stroke-opacity:1">
            <path
               id="ID0.27022988675162196"
               fill="#ffffff"
               d="m 49.7018,38.68614 c 0,2.387 -0.5181,6.4196 -1.5488,12.0945 -0.3223,2.0647 -0.9669,4.2262 -1.936,6.4834 -1.485,3.355 -4.015,6.3228 -7.5944,8.9023 -3.5805,2.5795 -7.0477,3.8698 -10.4016,3.8698 -1.0967,0 -2.0966,-0.1606 -2.9997,-0.4829 -4.9027,-1.5477 -8.7076,-4.4825 -11.4169,-8.8055 -0.5181,-0.8371 -1.1946,-2.2572 -2.0328,-4.257 -0.9031,-2.2572 -1.4025,-3.9985 -1.4993,-5.225 -0.0968,-1.2243 -0.3388,-2.8369 -0.726,-4.8367 v -7.161 c 0.2574,-0.1276 0.1287,-0.3212 -0.3872,-0.5797 h 0.5808 c 0,-0.3223 0.1276,-0.935 0.3872,-1.8381 0.2563,-0.9031 0.3872,-1.5807 0.3872,-2.0328 0,-0.3872 -0.0968,-0.7414 -0.2904,-1.0648 0.2563,0 0.4829,-0.0968 0.6765,-0.2904 -0.0649,-0.1287 -0.2266,-0.1936 -0.4829,-0.1936 0.0638,-0.0638 0.1771,-0.1606 0.3388,-0.2904 0.1606,-0.1287 0.2739,-0.2255 0.3399,-0.2904 -0.066,-0.0649 -0.1452,-0.1133 -0.2431,-0.1463 -0.0968,-0.0308 -0.1782,-0.0792 -0.242,-0.1452 0.3883,-1.0318 0.7414,-2.4508 1.0648,-4.257 0.2563,-1.4828 0.7744,-3.5145 1.5477,-6.0951 1.1616,-3.74 3.806,-7.6109 7.9343,-11.6116 1.1616,-1.0955998 2.4189,-1.7731998 3.7741,-2.0316998 0.1936,0 1.4509,-0.0649 3.7741,-0.1947 3.2252,-0.1276 6.2557,0.5489 9.0948,2.0327998 3.2912,1.6775 5.8696,4.1932 7.7407,7.5471 0.9691,1.7413 1.8711,4.0964 2.7093,7.0631 0.9691,3.289 1.452,6.1281 1.452,8.514 v 5.3229 z m -6.3855,-10.7393 c -0.385,-0.902 -0.836,-2.0636 -1.3497,-3.4837 -0.6446,-2.9029 -2.5575,-5.5781 -5.7387,-8.0311 -3.1823,-2.4508 -6.1226,-3.5464 -8.8231,-3.289 -1.221,0.1298 -3.2791,2.1626 -6.1732,6.0962 -1.4146,1.8711 -2.8281,5.6122 -4.2416,11.2233 -1.2859,5.225 -1.8975,9.2565 -1.8315,12.0945 0.1276,3.6124 0.3212,6.1281 0.5786,7.546 0.4488,2.6455 1.4135,5.0644 2.8919,7.2578 1.4146,1.9349 2.508,3.1922 3.2791,3.7741 2.8919,2.0647 5.6232,3.0954 8.1961,3.0954 0.5775,0 1.1242,-0.0638 1.639,-0.1936 1.221,-0.1936 2.6664,-0.9988 4.3384,-2.4189 1.4146,-1.2903 2.475,-2.4827 3.1834,-3.5805 0.9636,-1.6115 1.8645,-4.0304 2.7005,-7.2567 1.2848,-4.708 1.9294,-9.7075 1.9294,-14.9974 0.0022,-2.8369 -0.1914,-5.4494 -0.5786,-7.8364 z"
               stroke-width="1.1"
               style="stroke-width:3.77781416;stroke-miterlimit:4;stroke-dasharray:none;stroke:none;stroke-opacity:1" />
          </g>
        </g>
        <g
           transform="matrix(0.26458333,0,0,0.26458333,85.71323,51.412499)"
           id="ID0.8442582632414997"
           style="stroke-width:3.77781416;stroke-miterlimit:4;stroke-dasharray:none;stroke:none;stroke-opacity:1">
          <g
             id="ID0.9731424255296588"
             style="stroke-width:3.77781416;stroke-miterlimit:4;stroke-dasharray:none;stroke:none;stroke-opacity:1">
            <g
               id="ID0.1037183185108006"
               style="stroke-width:3.77781416;stroke-miterlimit:4;stroke-dasharray:none;stroke:none;stroke-opacity:1" />
          </g>
          <g
             id="ID0.6217719060368836"
             style="stroke-width:3.77781416;stroke-miterlimit:4;stroke-dasharray:none;stroke:none;stroke-opacity:1">
            <path
               id="ID0.2878211308270693"
               fill="#ffffff"
               d="m 66.58685,12.087735 c -1.0329,1.3541 -2.5157,2.1296 -4.4517,2.3221 -3.1614,0.1936 -4.9676,0.3553 -5.4186,0.4829 -0.0649,1.3541 -0.0968,3.5167 -0.0968,6.4834 0.0319,3.0327 0.1287,7.4184 0.2904,13.1593 0,1.2254 0,2.9667 0,5.225 0.3883,9.1597 0.5808,13.1912 0.5808,12.0934 0.0638,3.0965 -0.033,7.7737 -0.2904,14.0305 -0.1298,0.7744 -0.5808,1.6445 -1.3541,2.6125 -0.7744,0.968 -1.6786,1.5147 -2.7093,1.6445 -0.1298,0 -0.968,-0.2904 -2.5157,-0.8701 -0.1936,-0.8382 -0.4521,-1.5488 -0.7744,-2.1296 -1.2914,-1.9349 -3.0327,-4.6761 -5.2239,-8.2247 -1.4201,-2.7731 -3.6454,-6.9333 -6.6759,-12.4828 -2.1296,-2.9656 -5.3218,-7.7396 -9.5788,-14.3198 -0.4521,-0.902 -1.2265,-2.2572 -2.3221,-4.0634 h -0.1936 c -0.1936,2.8391 -0.1617,5.7079 0.0968,8.6108 0,0.1298 0.0484,0.3553 0.1452,0.6776 0.0968,0.3234 0.1452,0.5797 0.1452,0.7733 v 6.6759 c 0,3.0965 -0.1298,5.5484 -0.3872,7.3546 0.0649,0.9031 0.2277,2.2242 0.4873,3.9666 0.9097,0.517 2.0152,0.7733 3.3165,0.7733 0.5203,0 1.2342,-0.0638 2.145,-0.1936 0.9097,-0.1287 1.5928,-0.1936 2.0482,-0.1936 1.8854,0 3.2494,0.6765 4.0975,2.0317 0.3212,1.2914 -0.3553,2.3221 -2.0328,3.0965 -1.419,0.7106 -2.8061,0.9999 -4.1602,0.8701 -1.9349,-0.1276 -4.6123,-0.0253 -8.0311,0.3069 -1.2254,0.1375 -3.0646,0.4796 -5.5154,1.0252 -1.8073,0.3399 -3.4518,0.4752 -4.9346,0.4103 -2.9029,-0.2574 -4.3538,-1.5477 -4.3538,-3.8709 0,-0.3872 0.0638,-0.7744 0.1925,-1.1616 1.0219,-1.5477 2.8457,-2.3221 5.4681,-2.3221 0.319,0 0.8305,0 1.5356,0 0.6391,0 1.1187,0 1.4399,0 1.2782,0 2.1736,-0.2244 2.6851,-0.6765 0,-0.3883 0,-1.0318 0,-1.936 v -10.4489 c 0.2574,-0.7106 0.3542,-1.7094 0.2915,-3.0008 -0.066,-1.0956 -0.1298,-2.1912 -0.1936,-3.289 -0.066,-1.7413 -0.1947,-3.322 -0.3883,-4.7421 -0.1298,-2.321 -0.2904,-5.4186 -0.4829,-9.2873 0,0.1936 0.0308,-0.4191 0.0968,-1.8392 0.0638,-0.8382 -0.1452,-1.4179 -0.6281,-1.7413 -0.484,-0.3223 -1.243,-0.484 -2.2737,-0.484 -0.517,0 -1.2914,0.066 -2.3221,0.1947 -1.0318,0.1298 -1.8073,0.1936 -2.3221,0.1936 -2.4519,0 -3.6762,-1.2903 -3.6762,-3.8709 0,-0.3223 0.2882,-0.7744 0.8657,-1.3541 0.5775,-0.5808 1.0604,-0.902 1.4454,-0.968 0.8338,-0.1936 2.5355,-0.2244 5.1051,-0.0968 0.77,0 1.9096,-0.0484 3.4177,-0.1452 1.5092,-0.0968 2.5861,-0.1452 3.2285,-0.1452 0.4488,0 1.1869,0.3278 2.2154,0.9845 1.0285,0.6567 1.7336,1.3101 2.1197,1.9657 0.0649,0 1.8854,3.2505 5.4604,9.7471 1.4212,2.6422 3.0536,5.368 4.8972,8.1708 1.8414,2.805 3.9908,6.2051 6.4471,10.1992 1.6148,2.7731 3.9743,6.9619 7.0785,12.5697 0.2574,-1.0956 0.3883,-2.2572 0.3883,-3.4826 0,-0.3223 0.0638,-1.0791 0.1936,-2.2737 0.1298,-1.1924 0.1947,-2.0471 0.1947,-2.5641 0,-0.5159 -0.0649,-1.3376 -0.1936,-2.4673 -0.1298,-1.1275 -0.1936,-1.7248 -0.1936,-1.7897 v -5.6122 c 0,-0.5808 -0.1606,-8.5151 -0.4796,-23.8029 -0.2563,-0.0638 -0.5445,-0.0968 -0.8646,-0.0968 -0.5753,0 -1.4399,0.1298 -2.5905,0.3872 -1.1528,0.2585 -1.9514,0.4213 -2.4002,0.484 -0.8327,-0.0638 -1.9525,-0.0968 -3.3605,-0.0968 -0.0638,-0.0638 -0.4961,-0.3707 -1.2958,-0.9196 -0.8019,-0.5478 -1.1682,-1.0164 -1.1044,-1.4025 0,-0.4499 0.1606,-1.0648 0.484,-1.8381 0.902,-1.0967 2.0944,-1.7423995 3.5794,-1.9359995 1.2243,-0.0638 2.4519,-0.1287 3.6773,-0.1936 3.289,-0.0638 8.481,-0.4191 15.5771,-1.0648 0.968,-0.1276 1.9987,0.1452 3.0965,0.8228 1.0956,0.6765 1.6445,1.4024995 1.6445,2.1768995 -0.0011,0.3289 -0.132,0.6193 -0.3883,0.8756 z"
               stroke-width="1.1"
               style="stroke-width:3.77781416;stroke-miterlimit:4;stroke-dasharray:none;stroke:none;stroke-opacity:1" />
          </g>
        </g>
      </g>
      <g
         id="g926"
         transform="matrix(0.73133155,0,0,0.73133155,35.974861,-14.535841)"
         style="stroke-width:0.99954665;stroke-miterlimit:4;stroke-dasharray:none;stroke:none;stroke-opacity:1">
        <g
           transform="matrix(0.26458333,0,0,0.26458333,131.94573,29.176122)"
           id="ID0.09132010536268353"
           style="stroke-width:3.77781416;stroke-miterlimit:4;stroke-dasharray:none;stroke:none;stroke-opacity:1">
          <g
             id="ID0.8797872932627797"
             style="stroke-width:3.77781416;stroke-miterlimit:4;stroke-dasharray:none;stroke:none;stroke-opacity:1" />
        </g>
        <g
           transform="translate(-26.458334,-89.958336)"
           id="g952"
           style="stroke-width:0.99954665;stroke-miterlimit:4;stroke-dasharray:none;stroke:none;stroke-opacity:1">
          <g
             id="ID0.14111100835725665"
             transform="matrix(0.26458333,0,0,0.26458333,182.33246,117.85123)"
             style="stroke-width:3.77781416;stroke-miterlimit:4;stroke-dasharray:none;stroke:none;stroke-opacity:1">
            <g
               id="ID0.9008341920562088"
               style="stroke-width:3.77781416;stroke-miterlimit:4;stroke-dasharray:none;stroke:none;stroke-opacity:1" />
          </g>
          <g
             id="ID0.9128967123106122"
             transform="matrix(0.26458333,0,0,0.26458333,182.33246,117.85123)"
             style="stroke-width:3.77781416;stroke-miterlimit:4;stroke-dasharray:none;stroke:none;stroke-opacity:1">
            <path
               id="ID0.027485548984259367"
               fill="#ffffff"
               d="m 65.109311,56.16935 c -0.4532,0.517 -1.3882,1.0318 -2.8061,1.5477 -5.2921,2.0647 -9.8373,4.6123 -13.6422,7.6439 -0.7106,0.5159 -1.9701,0.8052 -3.7752,0.8701 -0.517,0 -1.0494,-0.2266 -1.5961,-0.6765 -0.5489,-0.451 -0.8228,-0.968 -0.8228,-1.5477 0,-0.7744 0.8712,-1.7732 2.6125,-3.0008 1.2243,-0.7733 2.4519,-1.5807 3.6784,-2.4189 0.0627,-0.3212 -1.001,-4.1272 -3.1966,-11.4169 -3.5508,-0.0638 -9.1355,1.0956 -16.7519,3.4815 -0.4532,0.1298 -0.7117,0.3872 -0.7755,0.7744 -0.0649,0.3872 -0.1617,1.0307 -0.2904,1.9338 -0.1243,0.1936 -0.2475,0.4829 -0.3707,0.8701 0,0.2585 0.3707,0.5335 1.1132,0.8239 0.7403,0.2915 1.21,0.5665 1.4025,0.8228 0.1936,0.2585 0.2904,0.5797 0.2904,0.968 0,0.7733 -0.3388,1.5004 -1.0164,2.178 -0.6765,0.6765 -1.4993,1.0153 -2.4662,1.0153 0.0638,0 -1.0978,-0.1606 -3.4837,-0.4829 -0.4521,-0.0638 -3.3869,-0.3223 -8.8055,-0.7733 -2.5806,-0.2574 -4.29,-0.6446 -5.1270998,-1.1616 -0.5808,-0.3872 -0.8712,-0.9031 -0.8712,-1.5477 0,-1.5488 0.7744,-2.4519 2.3220998,-2.7093 0.902,-0.1287 2.0636,-0.0649 3.4826,0.1936 0.3223,0.1298 2.8688,0.3542 7.6439,0.6765 0.3872,-2.7093 1.0318,-6.4834 1.9349,-11.3201 1.9987,-7.9343 4.0964,-17.9971 6.2898,-30.1884 -0.6457,-0.1276 -1.3222,-0.1936 -2.0317,-0.1936 -1.2265,0 -3.0481,0.3553 -5.4681,1.0648 -2.4178,0.7106 -4.2086,1.0648 -5.3702,1.0648 -0.451,0 -1.0967,-0.3531 -1.9349,-1.0648 -0.2585,-0.7744 -0.0814,-1.4663 0.5313,-2.0801 0.6127,-0.6127 1.2903,-0.9834 2.0328,-1.1132 0.7414,-0.1287 1.9184,-0.3542 3.5321,-0.6776 2.7731,-0.5159 6.127,-0.902 10.0617,-1.1616 1.87,-0.1276 2.838,-0.1936 2.9029,-0.1936 1.0318,0.1298 1.8062,0.6292 2.3221,1.4993 0.5159,0.8712 1.0318,2.2737 1.5477,4.2086 0.6446,2.3881 1.0791,3.839 1.3068,4.3549 0.2255,0.517 0.5962,1.3541 1.1132,2.5157 0.2563,0.7733 0.7403,1.9349 1.4509,3.4826 1.4839,3.5486 3.8049,9.0959 6.9674,16.6419 1.1605,3.0965 2.9997,7.8067 5.5154,14.1273 1.0956,-0.1287 2.5157,-0.6776 4.2559,-1.6445 1.7424,-0.968 3.0316,-1.4509 3.872,-1.4509 0.7733,0 1.5147,0.2904 2.2253,0.8701 0.1936,0.1936 0.352,0.6776 0.4829,1.4509 0.0649,0.8404 -0.0319,1.4212 -0.2882,1.7435 z m -21.4808,-14.0261 c -1.1011,-2.1285 -2.4904,-5.3559 -4.1712,-9.68 -0.6468,-1.4839 -2.3914,-5.3548 -5.2371,-11.616 l -4.785,24.3936 c 5.7937,-1.0956 10.3301,-1.9349 13.6136,-2.5168 0.3861,-0.2563 0.5797,-0.451 0.5797,-0.5808 z"
               stroke-width="1.1"
               style="stroke-width:3.77781416;stroke-miterlimit:4;stroke-dasharray:none;stroke:none;stroke-opacity:1" />
          </g>
          <g
             id="ID0.4378406126052141"
             transform="matrix(0.26458333,0,0,0.26458333,198.13232,118.59657)"
             style="stroke-width:3.77781416;stroke-miterlimit:4;stroke-dasharray:none;stroke:none;stroke-opacity:1">
            <g
               id="ID0.6158824115991592"
               style="stroke-width:3.77781416;stroke-miterlimit:4;stroke-dasharray:none;stroke:none;stroke-opacity:1" />
          </g>
          <g
             id="ID0.20347949722781777"
             transform="matrix(0.26458333,0,0,0.26458333,198.13232,118.59657)"
             style="stroke-width:3.77781416;stroke-miterlimit:4;stroke-dasharray:none;stroke:none;stroke-opacity:1">
            <path
               id="ID0.4919582838192582"
               fill="#ffffff"
               d="m 58.276234,41.754498 c -0.3872,3.0327 -1.8073,5.9026 -4.2581,8.6119 -1.9998,2.1285 -4.9676,4.1602 -8.9012,6.0951 -6.71,3.2901 -12.7402,5.0006 -18.0928,5.1282 -1.0318,0.066 -2.7577,0.1452 -5.1766,0.242 -2.4189,0.0968 -3.6927,0.1452 -3.8225,0.1452 h -5.5143 c -0.968,0.1947 -1.8073,0.0495 -2.5157004,-0.4356 -0.7095,-0.4829 -1.1275,-1.1759 -1.2584,-2.0801 0.9042,-1.7424 2.6763004,-2.4838 5.3218004,-2.2253 4.1272,0.3872 6.4834,0.4829 7.0631,0.2904 0,-1.4179 -0.0649,-3.322 -0.1936,-5.7079 -0.2574,-3.2901 -0.4202,-5.2888 -0.4829,-5.9994 -0.3234,-5.4186 -0.8712,-15.125 -1.6445,-29.1236 -0.066,-0.968 -0.2266,-1.6764 -0.484,-2.1296 -0.3234,-0.1936 -0.7425,-0.1936 -1.2584,0 -0.6446,0.1936 -1.419,0.2904 -2.321,0.2904 -1.4201,0 -2.7269,-0.2563 -3.9182,-0.7733 -1.1935004,-0.5159 -1.7897004,-1.2243 -1.7897004,-2.1296 0,-0.3223 0.0968,-0.6765 0.2904,-1.0648 0.7106004,-1.5477001 2.2242004,-2.3210001 4.5474004,-2.3210001 0.5159,0 1.4509,0.0649 2.8061,0.1936 1.0967,0.1298 1.9019,0.1606 2.4189,0.0968 0.5159,-0.0638 2.9997,0.0968 7.4492,0.4829 3.4188,0.3234 6.2249,0.7106001 8.4183,1.1616001 8.0619,1.8073 14.7697,6.9993 20.1256,15.5782 0.902,1.485 1.8689,3.8379 2.9029,7.0631 0.5786,1.8711 0.6754,4.7399 0.2882,8.6108 z m -7.1599,4.0634 c 1.2892,-2.1285 1.936,-4.4506 1.936,-6.9663 0,-6.0621 -3.3231,-12.0945 -9.966,-18.0928 -0.8393,-0.7744 -2.6785,-1.936 -5.5154,-3.4837 -3.8071,-1.9976 -8.1609,-3.0954 -13.0625,-3.289 0.6446,14.8368 1.2584,25.8016 1.8381,32.8966 0.2574,2.3221 0.6446,5.7739 1.1616,10.3532 3.3539,0.1936 7.161,-0.5643 11.418,-2.2737 4.257,-1.7083 7.8683,-3.982 10.8372,-6.8211 0.0616,-0.0638 0.5148,-0.8382 1.353,-2.3232 z"
               stroke-width="1.1"
               style="stroke-width:3.77781416;stroke-miterlimit:4;stroke-dasharray:none;stroke:none;stroke-opacity:1" />
          </g>
          <g
             id="ID0.28931185230612755"
             transform="matrix(0.26458333,0,0,0.26458333,212.7531,117.69985)"
             style="stroke-width:3.77781416;stroke-miterlimit:4;stroke-dasharray:none;stroke:none;stroke-opacity:1">
            <g
               id="ID0.5398706374689937"
               style="stroke-width:3.77781416;stroke-miterlimit:4;stroke-dasharray:none;stroke:none;stroke-opacity:1" />
          </g>
          <g
             id="ID0.8532444606535137"
             transform="matrix(0.26458333,0,0,0.26458333,212.7531,117.69985)"
             style="stroke-width:3.77781416;stroke-miterlimit:4;stroke-dasharray:none;stroke:none;stroke-opacity:1">
            <path
               id="ID0.861225085798651"
               fill="#ffffff"
               d="m 59.30205,20.22752 c -0.7733,1.0978 -1.9679,1.6456 -3.5794,1.6456 -0.8393,0 -1.5818,-0.1606 -2.2253,-0.484 -0.0649,-1.7413 -0.2266,-4.3208 -0.4829,-7.7407 -5.4835,1.0329 -14.2241,2.5487 -26.2207,4.5485 -0.5808,0.0649 -1.0648,0.2266 -1.452,0.4829 0.3223,5.9356 0.484,11.7414 0.484,17.4163 0.6534,0.1298 2.7137,-0.1606 6.1798,-0.8712 1.7006,-0.2563 4.3186,-0.8701 7.8496,-1.8381 0.0638,-1.0318 -0.0649,-2.7577 -0.3872,-5.1766 -0.3234,-2.4189 -0.4521,-4.2086 -0.3872,-5.3702 0,-1.2243 0.8371,-1.8381 2.5157,-1.8381 1.9349,0 2.9656,0.8063 3.0954,2.4189 0.2563,2.4519 0.6435,6.1281 1.1616,11.0297 v 14.9974 c 0.1936,0.2585 0.3212,0.4521 0.3872,0.5797 -0.1936,0.7744 -0.7425,1.4366 -1.6445,1.9844 -0.9042,0.5489 -1.8073,0.8217 -2.7093,0.8217 -1.1616,0 -1.936,-0.5148 -2.3221,-1.5477 0.1287,-0.6435 0.2255,-1.6445 0.2904,-2.9997 v -8.9012 c -4.0931,0.1298 -8.7043,0.9669 -13.8358,2.5146 0,1.1616 -0.033,4.1294 -0.0968,8.9023 -0.066,3.9347 -0.066,6.6132 0,8.0311 0,0.3234 0.2563,0.9042 0.7744,1.7413 1.3541,0.066 3.4496,0.1936 6.2887,0.3883 3.2901,0.3234 6.5791,0.6446 9.8692,0.9669 3.9336,0.4521 7.2237,0.6149 9.8703,0.484 0.0638,-0.8382 0.2244,-2.1615 0.4829,-3.9666 v -5.709 c -0.3872,-0.6435 -0.5808,-1.2584 -0.5808,-1.8381 0,-0.968 0.4026,-1.7897 1.21,-2.4673 0.8052,-0.6765 1.694,-1.0164 2.6609,-1.0164 0.7744,0 1.3871,0.2277 1.8392,0.6776 0.2563,0.2585 0.3212,1.0978 0.1936,2.5157 -0.066,0.3234 -0.033,0.8877 0.0968,1.6929 0.1287,0.8074 0.1936,1.3398 0.1936,1.5961 0,0.3883 -0.0649,1.0164 -0.1936,1.8876 -0.1298,0.8701 -0.1936,1.3398 -0.1936,1.4025 v 5.8047 c 0,0.066 0.1276,0.3872 0.3872,0.968 0.1287,0.5797 0.1287,0.9669 0,1.1616 -0.9053,1.8073 -2.2638,2.7093 -4.0711,2.7093 -0.4532,0 -1.0021,-0.0638 -1.6489,-0.1936 -0.6479,-0.1287 -1.034,-0.1936 -1.1638,-0.1936 h -5.9136 c -1.551,0 -4.3461,-0.2255 -8.3864,-0.6776 -4.0392,-0.4499 -7.4822,-0.6765 -10.3246,-0.6765 h -6.1072 c -0.5181,0 -1.551,0.0814 -3.102,0.242 -1.551,0.1606 -2.7478,0.242 -3.5882,0.242 -1.7446,0 -3.168,-0.2904 -4.2647,-0.8712 -0.3234,-0.1936 -0.4851,-0.6765 -0.4851,-1.4509 0,-0.7095 0.1925,-1.2584 0.5753,-1.6445 0.8305,-0.8382 1.9811,-1.3211 3.4518,-1.4509 0.9581,0 1.9481,0 2.9722,0 0.7018,0.1298 1.6599,0.0649 2.8754,-0.1936 0.3839,-0.1947 0.6083,-0.6446 0.671,-1.3541 0.0638,-0.451 0.0638,-1.1275 0,-2.0328 -0.0638,-1.0318 -0.0957,-1.6115 -0.0957,-1.7413 0,-6.7089 -0.0308,-10.5468 -0.0957,-11.5148 -1.1407,-0.1276 -2.7269,-0.5467 -4.7553,-1.2584 -0.8943,-0.7095 -1.1176,-1.6764 -0.6644,-2.9029 0.3872,-1.0318 1.2584,-1.7732 2.6125,-2.2253 0.9669,-0.3212 1.9349,-0.6127 2.9029,-0.8701 0.1936,-0.7095 0.2244,-1.5807 0.0968,-2.6125 -0.1298,-0.902 -0.2266,-1.7732 -0.2904,-2.6125 -0.1298,-2.7731 -0.3553,-7.0301 -0.6776,-12.7721 -0.2585,0 -1.1286,0.0814 -2.6125,0.2431 -1.485,0.1606 -2.6455,0.242 -3.4826,0.242 -2.9678,0 -4.4517,-0.8877 -4.4517,-2.6642 0,-0.2519 0.0319,-0.5379 0.0968,-0.8558 -0.0649,-0.1265 -0.1276,-0.1903 -0.1936,-0.1903 1.4179,-1.1396 3.0316,-1.7743 4.8378,-1.9019 1.1616,0 2.321,0 3.4826,0 8.063,-0.1287 21.1255,-1.9987 39.1864,-5.6121996 0.1936,-0.0649 0.5159,-0.0319 0.968,0.0968 0.4499,0.1298 0.7095,0.2266 0.7733,0.2904 0.5159,0.7106 0.8712,1.5157996 1.0648,2.4188996 -0.1947,2.8391 -0.0979,5.8685 0.2882,9.0937 z"
               stroke-width="1.1"
               style="stroke-width:3.77781416;stroke-miterlimit:4;stroke-dasharray:none;stroke:none;stroke-opacity:1" />
          </g>
          <g
             id="ID0.6002094144932926"
             transform="matrix(0.26458333,0,0,0.26458333,228.04759,117.70897)"
             style="stroke-width:3.77781416;stroke-miterlimit:4;stroke-dasharray:none;stroke:none;stroke-opacity:1">
            <g
               id="ID0.8163827913813293"
               style="stroke-width:3.77781416;stroke-miterlimit:4;stroke-dasharray:none;stroke:none;stroke-opacity:1">
              <path
                 id="ID0.6007779934443533"
                 fill="#faa83b"
                 d="m 60.881,57.091 c 0.233,0.88 -0.161,2.215 -1.186,4.003 -1.023,1.789 -2.105,3.064 -3.246,3.826 -1.141,0.762 -2.911,1.261 -5.308,1.495 -1.931,0.176 -3.73,-0.675 -5.396,-2.551 -1.668,-1.876 -2.617,-3.958 -2.851,-6.245 -0.645,-6.45 -1.464,-11.083 -2.458,-13.898 -0.118,-0.703 -0.439,-1.743 -0.966,-3.122 -0.526,-1.377 -1.725,-2.507 -3.597,-3.387 -1.405,-0.527 -2.837,-1.084 -4.299,-1.671 -0.234,-0.058 -0.526,-0.058 -0.877,0 -0.819,0.234 -2.517,0.703 -5.09,1.407 v 1.671 6.861 c 0,0.118 0.044,0.675 0.132,1.671 0.088,0.998 0.132,1.702 0.132,2.111 0.117,0.998 0.265,3.637 0.44,7.916 0.409,0.177 0.849,0.177 1.319,0 1.583,-0.645 2.99,-0.791 4.222,-0.439 0.88,0.294 1.319,0.998 1.319,2.111 0,1.643 -0.865,2.625 -2.595,2.946 -1.73,0.323 -4.266,0.778 -7.608,1.364 -2.698,0.527 -4.692,0.791 -5.981,0.791 -1.994,0 -3.373,-0.469 -4.134,-1.407 -0.176,-1.936 0.82,-3.107 2.99,-3.519 1.76,-0.176 3.519,-0.381 5.277,-0.616 0.234,-0.292 0.353,-0.615 0.353,-0.967 -0.06,-1.349 -0.382,-6.187 -0.968,-14.514 -0.176,-1.993 -0.235,-3.519 -0.176,-4.574 -1.056,-0.058 -1.76,-0.146 -2.111,-0.264 -0.88,-0.293 -1.438,-0.85 -1.671,-1.671 v -0.265 c 0.116,-0.058 0.204,-0.352 0.264,-0.879 0.82,-1.29 1.876,-1.788 3.167,-1.496 0.116,-0.352 0.088,-1.289 -0.089,-2.814 -0.527,-5.57 -0.851,-10.027 -0.967,-13.37 -0.235,-0.233 -0.734,-0.293 -1.496,-0.176 -1.173,0.235 -1.789,0.352 -1.847,0.352 -3.167,0 -4.692,-0.761 -4.574,-2.287 0.117,-1.407 1.319,-2.256 3.606,-2.551 2.052,-0.409 6.362,-1.055 12.931,-1.935 -0.294,0.059 1.788,0.146 6.245,0.264 5.159,0.411 8.766,1.262 10.819,2.551 2.228,1.467 3.723,3.401 4.485,5.806 0.233,0.763 0.293,1.906 0.176,3.431 -0.059,1.525 -0.294,2.609 -0.703,3.254 -1.35,2.463 -4.076,4.662 -8.181,6.598 0,0.176 0.029,0.294 0.088,0.352 1.466,1.056 2.463,1.994 2.991,2.814 1.523,2.463 2.551,6.041 3.078,10.731 0.762,6.393 1.377,10.409 1.847,12.051 0.059,0.352 0.469,0.909 1.231,1.671 0.762,0.764 1.378,1.174 1.848,1.231 1.816,0.118 2.932,-0.703 3.343,-2.463 -0.06,-0.645 0.204,-1.524 0.791,-2.639 0.821,-0.762 1.817,-1.144 2.991,-1.144 1.175,0.002 1.937,0.531 2.29,1.585 z M 43.289,26.217 c 0.527,-0.527 0.791,-1.348 0.791,-2.463 0,-2.99 -1.056,-5.13 -3.166,-6.421 -2.111,-1.289 -6.686,-1.876 -13.723,-1.759 -0.527,0 -1.319,0.234 -2.375,0.703 0.177,0.88 0.177,1.613 0,2.199 -0.059,0.88 -0.059,1.701 0,2.463 0.029,1.583 0.089,3.549 0.177,5.894 0.292,3.46 0.439,5.396 0.439,5.805 0.996,-0.058 2.463,-0.352 4.398,-0.879 0.292,-0.293 0.703,-0.616 1.231,-0.968 0.409,-0.117 1.465,-0.176 3.166,-0.176 3.226,0.001 6.247,-1.464 9.062,-4.398 z"
                 stroke-width="1"
                 style="stroke-width:3.77781416;stroke-miterlimit:4;stroke-dasharray:none;stroke:none;stroke-opacity:1" />
            </g>
          </g>
          <g
             id="ID0.23415496619418263"
             transform="matrix(0.26458333,0,0,0.26458333,228.04759,117.70897)"
             style="stroke-width:3.77781416;stroke-miterlimit:4;stroke-dasharray:none;stroke:none;stroke-opacity:1">
            <path
               id="ID0.2135459086857736"
               fill="#ffffff"
               d="m 63.371872,58.928319 c 0.2563,0.968 -0.1771,2.4365 -1.3046,4.4033 -1.1253,1.9679 -2.3155,3.3704 -3.5706,4.2086 -1.2551,0.8382 -3.2021,1.3871 -5.8388,1.6445 -2.1241,0.1936 -4.103,-0.7425 -5.9356,-2.8061 -1.8348,-2.0636 -2.8787,-4.3538 -3.1361,-6.8695 -0.7095,-7.095 -1.6104,-12.1913 -2.7038,-15.2878 -0.1298,-0.7733 -0.4829,-1.9173 -1.0626,-3.4342 -0.5786,-1.5147 -1.8975,-2.7577 -3.9567,-3.7257 -1.5455,-0.5797 -3.1207,-1.1924 -4.7289,-1.8381 -0.2574,-0.0638 -0.5786,-0.0638 -0.9647,0 -0.9009,0.2574 -2.7687,0.7733 -5.599,1.5477 v 1.8381 7.5471 c 0,0.1298 0.0484,0.7425 0.1452,1.8381 0.0968,1.0978 0.1452,1.8722 0.1452,2.3221 0.1287,1.0978 0.2915,4.0007 0.484,8.7076 0.4499,0.1947 0.9339,0.1947 1.4509,0 1.7413,-0.7095 3.289,-0.8701 4.6442,-0.4829 0.968,0.3234 1.4509,1.0978 1.4509,2.3221 0,1.8073 -0.9515,2.8875 -2.8545,3.2406 -1.903,0.3553 -4.6926,0.8558 -8.3688,1.5004 -2.9678,0.5797 -5.1612,0.8701 -6.5791,0.8701 -2.1934,0 -3.7103,-0.5159 -4.5474,-1.5477 -0.1936,-2.1296 0.902,-3.4177 3.289,-3.8709 1.936,-0.1936 3.8709,-0.4191 5.8047,-0.6776 0.2574,-0.3212 0.3883,-0.6765 0.3883,-1.0637 -0.066,-1.4839 -0.4202,-6.8057 -1.0648,-15.9654 -0.1936,-2.1923 -0.2585,-3.8709 -0.1936,-5.0314 -1.1616,-0.0638 -1.936,-0.1606 -2.3221,-0.2904 -0.968,-0.3223 -1.5818,-0.935 -1.8381,-1.8381 v -0.2915 c 0.1276,-0.0638 0.2244,-0.3872 0.2904,-0.9669 0.902,-1.419 2.0636,-1.9668 3.4837,-1.6456 0.1276,-0.3872 0.0968,-1.4179 -0.0979,-3.0954 -0.5797,-6.127 -0.9361,-11.0297 -1.0637,-14.707 -0.2585,-0.2563 -0.8074,-0.3223 -1.6456,-0.1936 -1.2903,0.2585 -1.9679,0.3872 -2.0317,0.3872 -3.4837,0 -5.1611999,-0.8371 -5.0313999,-2.5157 0.1287,-1.5477 1.4509,-2.4816 3.9665999,-2.8061 2.2572,-0.4499001 6.9982,-1.1605001 14.2241,-2.1285001 -0.3234,0.0649 1.9668,0.1606 6.8695,0.2904 5.6749,0.4521 9.6426,1.3882 11.9009,2.8061001 2.4508,1.6137 4.0953,3.7411 4.9335,6.3866 0.2563,0.8393 0.3223,2.0966 0.1936,3.7741 -0.0649,1.6775 -0.3234,2.8699 -0.7733,3.5794 -1.485,2.7093 -4.4836,5.1282 -8.9991,7.2578 0,0.1936 0.0319,0.3234 0.0968,0.3872 1.6126,1.1616 2.7093,2.1934 3.2901,3.0954 1.6753,2.7093 2.8061,6.6451 3.3858,11.8041 0.8382,7.0323 1.5147,11.4499 2.0317,13.2561 0.0649,0.3872 0.5159,0.9999 1.3541,1.8381 0.8382,0.8404 1.5158,1.2914 2.0328,1.3541 1.9976,0.1298 3.2252,-0.7733 3.6773,-2.7093 -0.066,-0.7095 0.2244,-1.6764 0.8701,-2.9029 0.9031,-0.8382 1.9987,-1.2584 3.2901,-1.2584 1.2925,0.0022 2.1307,0.5841 2.519,1.7435 z m -19.3512,-33.9614 c 0.5797,-0.5797 0.8701,-1.4828 0.8701,-2.7093 0,-3.289 -1.1616,-5.643 -3.4826,-7.0631 -2.3221,-1.4179 -7.3546,-2.0636 -15.0953,-1.9349 -0.5797,0 -1.4509,0.2574 -2.6125,0.7733 0.1947,0.968 0.1947,1.7743 0,2.4189 -0.0649,0.968 -0.0649,1.8711 0,2.7093 0.0319,1.7413 0.0979,3.9039 0.1947,6.4834 0.3212,3.806 0.4829,5.9356 0.4829,6.3855 1.0956,-0.0638 2.7093,-0.3872 4.8378,-0.9669 0.3212,-0.3223 0.7733,-0.6776 1.3541,-1.0648 0.4499,-0.1287 1.6115,-0.1936 3.4826,-0.1936 3.5486,0.0011 6.8717,-1.6104 9.9682,-4.8378 z"
               stroke-width="1.1"
               style="stroke-width:3.77781416;stroke-miterlimit:4;stroke-dasharray:none;stroke:none;stroke-opacity:1" />
          </g>
          <g
             id="ID0.5328715601935983-5"
             transform="matrix(0.26458333,0,0,0.26458333,172.07404,117.57499)"
             style="stroke-width:3.77781416;stroke-miterlimit:4;stroke-dasharray:none;stroke:none;stroke-opacity:1">
            <g
               id="ID0.6646519578061998-8"
               style="stroke-width:3.77781416;stroke-miterlimit:4;stroke-dasharray:none;stroke:none;stroke-opacity:1" />
          </g>
          <g
             id="ID0.9338630577549338-0"
             transform="matrix(0.26458333,0,0,0.26458333,172.07404,117.57499)"
             style="stroke-width:3.77781416;stroke-miterlimit:4;stroke-dasharray:none;stroke:none;stroke-opacity:1">
            <path
               stroke-width="1.1"
               d="m 49.7018,38.68614 c 0,2.387 -0.5181,6.4196 -1.5488,12.0945 -0.3223,2.0647 -0.9669,4.2262 -1.936,6.4834 -1.485,3.355 -4.015,6.3228 -7.5944,8.9023 -3.5805,2.5795 -7.0477,3.8698 -10.4016,3.8698 -1.0967,0 -2.0966,-0.1606 -2.9997,-0.4829 -4.9027,-1.5477 -8.7076,-4.4825 -11.4169,-8.8055 -0.5181,-0.8371 -1.1946,-2.2572 -2.0328,-4.257 -0.9031,-2.2572 -1.4025,-3.9985 -1.4993,-5.225 -0.0968,-1.2243 -0.3388,-2.8369 -0.726,-4.8367 v -7.161 c 0.2574,-0.1276 0.1287,-0.3212 -0.3872,-0.5797 h 0.5808 c 0,-0.3223 0.1276,-0.935 0.3872,-1.8381 0.2563,-0.9031 0.3872,-1.5807 0.3872,-2.0328 0,-0.3872 -0.0968,-0.7414 -0.2904,-1.0648 0.2563,0 0.4829,-0.0968 0.6765,-0.2904 -0.0649,-0.1287 -0.2266,-0.1936 -0.4829,-0.1936 0.0638,-0.0638 0.1771,-0.1606 0.3388,-0.2904 0.1606,-0.1287 0.2739,-0.2255 0.3399,-0.2904 -0.066,-0.0649 -0.1452,-0.1133 -0.2431,-0.1463 -0.0968,-0.0308 -0.1782,-0.0792 -0.242,-0.1452 0.3883,-1.0318 0.7414,-2.4508 1.0648,-4.257 0.2563,-1.4828 0.7744,-3.5145 1.5477,-6.0951 1.1616,-3.74 3.806,-7.6109 7.9343,-11.6116 1.1616,-1.0955998 2.4189,-1.7731998 3.7741,-2.0316998 0.1936,0 1.4509,-0.0649 3.7741,-0.1947 3.2252,-0.1276 6.2557,0.5489 9.0948,2.0327998 3.2912,1.6775 5.8696,4.1932 7.7407,7.5471 0.9691,1.7413 1.8711,4.0964 2.7093,7.0631 0.9691,3.289 1.452,6.1281 1.452,8.514 v 5.3229 z m -6.3855,-10.7393 c -0.385,-0.902 -0.836,-2.0636 -1.3497,-3.4837 -0.6446,-2.9029 -2.5575,-5.5781 -5.7387,-8.0311 -3.1823,-2.4508 -6.1226,-3.5464 -8.8231,-3.289 -1.221,0.1298 -3.2791,2.1626 -6.1732,6.0962 -1.4146,1.8711 -2.8281,5.6122 -4.2416,11.2233 -1.2859,5.225 -1.8975,9.2565 -1.8315,12.0945 0.1276,3.6124 0.3212,6.1281 0.5786,7.546 0.4488,2.6455 1.4135,5.0644 2.8919,7.2578 1.4146,1.9349 2.508,3.1922 3.2791,3.7741 2.8919,2.0647 5.6232,3.0954 8.1961,3.0954 0.5775,0 1.1242,-0.0638 1.639,-0.1936 1.221,-0.1936 2.6664,-0.9988 4.3384,-2.4189 1.4146,-1.2903 2.475,-2.4827 3.1834,-3.5805 0.9636,-1.6115 1.8645,-4.0304 2.7005,-7.2567 1.2848,-4.708 1.9294,-9.7075 1.9294,-14.9974 0.0022,-2.8369 -0.1914,-5.4494 -0.5786,-7.8364 z"
               fill="#ffffff"
               id="ID0.27022988675162196-6"
               style="stroke-width:3.77781416;stroke-miterlimit:4;stroke-dasharray:none;stroke:none;stroke-opacity:1" />
          </g>
          <g
             id="ID0.24423800874501467"
             transform="matrix(0.26458333,0,0,0.26458333,157.87491,119.13447)"
             style="stroke-width:3.77781416;stroke-miterlimit:4;stroke-dasharray:none;stroke:none;stroke-opacity:1">
            <path
               id="ID0.40692060021683574"
               fill="#ffffff"
               d="m 57.825007,55.0027 c 0.2552,1.0978 -0.0671,1.969 -0.9691,2.6125 -0.902,0.6457 -2.1439,1.0164 -3.7257,1.1132 -1.5818,0.0968 -3.1108,0.1782 -4.5958,0.242 -0.9669,0.0605 -6.7408,0.5126 -17.3184,1.3541 -2.4519,0.1364 -6.4504,0.5115 -11.9977,1.1231 -2.5806,0.4785 -4.0315,0.715 -4.3538,0.715 -1.8073,0 -3.2263,-0.5808 -4.257,-1.7424 -0.1298,-1.1616 -0.1298,-1.8381 0,-2.0317 0.7733,-1.4179 2.2242,-2.2253 4.3538,-2.4189 1.7413,-0.1287 3.4507,-0.2563 5.1282,-0.3872 0.0638,0 0.1276,-0.0649 0.1936,-0.1947 0.1287,-2.6433 -0.1936,-5.6749 -0.968,-9.0948 v -5.4186 c 0,-3.3539 -0.3872,-8.965 -1.1616,-16.8366 -0.1298,-1.9349 -0.3234,-4.741 -0.5797,-8.4172 -0.3872,-0.2563 -0.9042,-0.3531 -1.5477,-0.2904 -0.8393,0.1298 -1.3541,0.1606 -1.5477,0.0968 -0.968,-0.1331 -1.969,-0.264 -3.0008,-0.3971 -1.2903,-0.2662 -2.0966005,-0.8635 -2.4178005,-1.793 -0.1947,-0.5973 -0.2915,-1.1616 -0.2915,-1.6918 0,-1.9921 1.9019005,-2.9876 5.7090005,-2.9876 0.7733,0 1.9976,0.1298 3.6762,0.3872 1.3541,0.066 2.2583,0.066 2.7093,0 1.3541,-0.1936 4.6112,-0.3223 9.7735,-0.3872 1.2243,0 2.0801,0.2574 2.563,0.7722 0.484,0.5159 0.726,1.1913 0.726,2.0273 0,1.1605 -0.3553,1.9327 -1.0648,2.3177 -0.9669,0.5797 -2.4838,0.8371 -4.5474,0.7722 -2.5817,-0.0638 -4.2262,-0.0319 -4.9346,0.0968 0.1287,3.091 0.4191,7.6923 0.8712,13.8061 v 4.7322 c 0,1.0307 0.3872,5.3427 1.1616,12.9382 0.1936,1.7391 0.4499,4.4737 0.7733,8.2071 0.1287,0.2266 0.2915,0.3388 0.484,0.3388 2.321,0.3553 4.4506,0.4686 6.3855,0.3388 2.3859,-0.1936 4.8048,-0.3872 7.2578,-0.5797 1.5477,-0.0638 3.0954,-0.1606 4.6442,-0.2915 2.0647,-0.1276 4.0953,-0.4499 6.0951,-0.9669 0,-0.7095 -0.1606,-1.87 -0.4829,-3.4837 -0.3872,-1.9976 -0.6149,-3.1592 -0.6765,-3.4826 0.0627,-0.6446 0.0968,-1.5807 0.0968,-2.8072 -0.2574,-1.6753 -0.5181,-3.1592 -0.7733,-4.4506 0.0627,0 0.1936,-0.0968 0.3872,-0.2904 -0.0671,-0.5797 0.2728,-1.0956 1.0164,-1.5477 0.7392,-0.451 1.5301,-0.6776 2.3694,-0.6776 0.451,0 0.8382,0.0968 1.1605,0.2915 0.5819,0.3234 1.0318,1.0802 1.3552,2.2726 0.3223,1.1946 0.4191,2.2418 0.2904,3.1449 -0.2574,2.321 0,5.8388 0.7733,10.5457 0.385,0.5203 0.8041,1.3255 1.2573,2.4211 z"
               stroke-width="1.1"
               style="stroke-width:3.77781416;stroke-miterlimit:4;stroke-dasharray:none;stroke:none;stroke-opacity:1" />
          </g>
        </g>
      </g>
    </g>
  </g>
  <style
     id="style8">.st0{fill:#fff}.st1{fill:#f9a83a}</style>
</svg>
